<?xml version="1.0" encoding="UTF-8"?>
<svg xmlns="http://www.w3.org/2000/svg" xmlns:xlink="http://www.w3.org/1999/xlink" width="50px" height="50px" viewBox="0 0 50 50" version="1.1">
<g id="surface1">
<path style=" stroke:none;fill-rule:nonzero;fill:rgb(0%,0%,0%);fill-opacity:1;" d="M 5.304688 31.152344 L 6.21875 28.480469 L 3.847656 29.921875 L 1.597656 28.089844 L 2.3125 30.902344 L 0 32.441406 L 2.8125 32.742188 L 3.640625 35.527344 L 4.664062 32.898438 L 7.480469 33.078125 Z M 16.359375 25.71875 L 13.984375 27.15625 L 11.738281 25.324219 L 12.449219 28.132812 L 10.136719 29.679688 L 12.949219 29.976562 L 13.777344 32.761719 L 14.804688 30.132812 L 17.621094 30.316406 L 15.441406 28.390625 Z M 13.59375 35.851562 L 11.21875 37.292969 L 8.96875 35.457031 L 9.683594 38.269531 L 7.375 39.8125 L 10.1875 40.109375 L 11.011719 42.898438 L 12.039062 40.265625 L 14.855469 40.449219 L 12.675781 38.523438 Z M 33.230469 14.050781 L 34.730469 14.132812 C 34.796875 14.140625 34.867188 14.117188 34.921875 14.070312 L 38.628906 10.589844 C 38.652344 10.570312 38.65625 10.542969 38.648438 10.515625 C 38.640625 10.492188 38.613281 10.476562 38.585938 10.472656 L 37.128906 10.390625 C 37.023438 10.382812 36.917969 10.421875 36.839844 10.492188 L 33.183594 13.925781 C 33.164062 13.941406 33.15625 13.972656 33.167969 14 C 33.175781 14.027344 33.199219 14.042969 33.230469 14.046875 Z M 48.957031 21.085938 C 47.859375 19.355469 46 18.253906 43.953125 18.117188 C 41.910156 17.976562 39.917969 18.8125 38.589844 20.371094 L 36.28125 18.644531 C 36.859375 18.40625 38.066406 17.875 38.148438 17.550781 C 38.195312 17.355469 37.582031 17.21875 36.632812 17.160156 L 40.96875 13.210938 C 40.996094 13.183594 41.003906 13.136719 40.984375 13.101562 L 39.882812 11.023438 C 39.871094 11 39.851562 10.984375 39.824219 10.984375 C 39.796875 10.976562 39.773438 10.984375 39.75 11.003906 L 35.246094 15.109375 C 33.898438 15.109375 31.503906 15.285156 30.8125 14.851562 C 29.714844 14.160156 29.585938 13.140625 29.179688 12.777344 C 28.773438 12.40625 28.3125 12.363281 28.21875 12.054688 C 28.214844 12.046875 28.214844 12.039062 28.21875 12.027344 C 28.222656 12.023438 28.230469 12.015625 28.238281 12.011719 C 28.453125 11.960938 29.636719 11.625 29.90625 10.804688 C 30.175781 9.980469 29.625 8.863281 29.53125 8.691406 C 29.523438 8.679688 29.523438 8.660156 29.53125 8.648438 L 30.789062 7.550781 C 30.800781 7.539062 30.800781 7.523438 30.796875 7.507812 C 30.789062 7.496094 30.777344 7.488281 30.761719 7.488281 L 28.914062 7.714844 C 28.90625 7.71875 28.894531 7.71875 28.886719 7.714844 C 28.785156 7.585938 28.054688 6.703125 26.550781 7.320312 C 24.796875 8.027344 25.121094 9.542969 25.121094 9.542969 C 25.351562 11.113281 25.898438 11.425781 26.785156 11.933594 C 26.8125 11.933594 26.820312 11.976562 26.785156 11.992188 C 26.214844 12.46875 20.460938 17.1875 15.148438 19.03125 C 15.109375 19.042969 15.085938 19.082031 15.085938 19.125 C 15.085938 19.167969 15.109375 19.207031 15.148438 19.222656 C 16.6875 19.890625 21.300781 19.527344 22.664062 18.742188 C 22.675781 18.730469 22.6875 18.730469 22.703125 18.738281 C 22.714844 18.746094 22.71875 18.761719 22.714844 18.777344 C 22.5625 19.34375 21.761719 22.679688 23.019531 23.714844 L 23.09375 23.769531 L 21.382812 24.972656 C 21.21875 25.085938 21.152344 25.300781 21.226562 25.488281 C 21.300781 25.675781 21.492188 25.789062 21.6875 25.761719 L 22.570312 25.667969 C 23.136719 25.605469 23.667969 25.359375 24.082031 24.957031 L 24.386719 24.667969 L 26.871094 26.511719 L 26.542969 29.140625 C 23.609375 28.980469 20.9375 30.820312 20.042969 33.613281 C 19.148438 36.414062 20.253906 39.460938 22.734375 41.035156 C 25.214844 42.609375 28.445312 42.308594 30.59375 40.304688 C 32.742188 38.304688 33.273438 35.105469 31.878906 32.519531 L 32.511719 32.117188 C 33.027344 32.570312 33.78125 32.636719 34.367188 32.273438 C 34.953125 31.90625 35.230469 31.203125 35.050781 30.539062 L 37.679688 29.769531 C 37.898438 29.707031 38.03125 29.488281 37.988281 29.269531 L 37.96875 29.183594 C 37.925781 28.984375 37.75 28.839844 37.546875 28.84375 L 35.316406 28.84375 C 35.300781 28.839844 35.289062 28.835938 35.28125 28.820312 L 34.613281 27.308594 L 35.945312 19.46875 L 38.101562 21.066406 C 36.375 23.769531 36.890625 27.324219 39.316406 29.421875 C 41.742188 31.519531 45.339844 31.519531 47.765625 29.421875 C 50.191406 27.324219 50.710938 23.769531 48.984375 21.066406 Z M 31.054688 16.441406 L 34.09375 16.390625 L 34.496094 17.140625 C 33.792969 17.167969 33.058594 17.222656 32.34375 17.3125 C 31.828125 17.375 31.207031 16.714844 31.023438 16.507812 C 31.015625 16.496094 31.015625 16.480469 31.023438 16.46875 C 31.027344 16.457031 31.039062 16.449219 31.054688 16.445312 Z M 26.441406 20.996094 C 26.695312 20.570312 28.171875 18.113281 28.359375 17.273438 C 28.363281 17.257812 28.371094 17.25 28.386719 17.246094 C 28.398438 17.246094 28.410156 17.246094 28.417969 17.257812 C 29.402344 18.40625 31.476562 19.0625 31.640625 19.101562 C 31.644531 19.105469 31.648438 19.105469 31.65625 19.101562 L 34.324219 18.28125 L 34.921875 18.726562 L 32.128906 21.285156 C 31.828125 21.015625 31.449219 20.851562 31.046875 20.8125 C 29.441406 20.605469 26.933594 20.96875 26.476562 21.039062 C 26.460938 21.03125 26.453125 21.011719 26.464844 20.996094 Z M 33.339844 29.390625 C 33.15625 29.410156 32.980469 29.460938 32.820312 29.542969 L 30.914062 28.085938 C 30.90625 28.074219 30.90625 28.054688 30.914062 28.046875 L 31.867188 26.070312 C 31.871094 26.058594 31.882812 26.046875 31.898438 26.046875 C 31.910156 26.046875 31.921875 26.058594 31.929688 26.070312 L 33.496094 28.53125 Z M 29.289062 27.253906 L 27.988281 26.28125 L 30.488281 23.988281 Z M 29.289062 23.875 L 27.261719 25.734375 L 25.226562 24.222656 C 26.601562 24.230469 27.976562 24.121094 29.328125 23.886719 Z M 27.671875 27.109375 L 29.011719 28.105469 L 28.847656 28.542969 C 28.796875 28.691406 28.800781 28.859375 28.867188 29.003906 C 28.9375 29.148438 29.058594 29.257812 29.210938 29.3125 L 32 30.332031 L 32.082031 30.390625 C 31.964844 30.707031 31.949219 31.050781 32.042969 31.375 L 31.429688 31.777344 C 30.464844 30.453125 29.039062 29.550781 27.429688 29.242188 Z M 27.238281 30.566406 C 28.457031 30.820312 29.539062 31.503906 30.289062 32.496094 L 26.710938 34.773438 Z M 28.953125 39.902344 C 27.089844 41.089844 24.679688 40.957031 22.960938 39.570312 C 21.246094 38.183594 20.613281 35.851562 21.386719 33.785156 C 22.160156 31.722656 24.171875 30.382812 26.375 30.464844 L 25.734375 35.578125 C 25.714844 35.75 25.792969 35.914062 25.933594 36.003906 C 26.074219 36.09375 26.257812 36.09375 26.398438 36.003906 L 30.75 33.234375 C 31.960938 35.59375 31.179688 38.476562 28.945312 39.902344 Z M 32.761719 23.144531 C 32.757812 23.132812 32.757812 23.128906 32.761719 23.121094 C 32.792969 22.753906 32.746094 22.390625 32.632812 22.039062 L 34.992188 19.890625 L 33.96875 25.878906 Z M 46.273438 28.875 C 44.261719 30.160156 41.621094 29.882812 39.921875 28.207031 C 38.21875 26.53125 37.898438 23.898438 39.15625 21.867188 L 43.21875 24.894531 C 43.363281 25.003906 43.558594 25.007812 43.710938 24.910156 C 43.753906 24.882812 43.792969 24.847656 43.820312 24.808594 C 43.894531 24.714844 43.925781 24.59375 43.910156 24.480469 C 43.890625 24.363281 43.828125 24.261719 43.730469 24.191406 L 39.664062 21.171875 C 39.980469 20.8125 40.351562 20.5 40.761719 20.25 C 42.304688 19.203125 44.292969 19.082031 45.957031 19.925781 C 47.617188 20.769531 48.691406 22.453125 48.753906 24.316406 C 48.820312 26.179688 47.867188 27.929688 46.269531 28.886719 Z M 46.273438 28.875 "/>
</g>
</svg>
